<svg height="282.842712" viewBox="0 0 13.336653 10.604" width="353.553391" xmlns="http://www.w3.org/2000/svg" xmlns:xlink="http://www.w3.org/1999/xlink"><filter id="a" height="1" width="1" x="0" y="0"><feColorMatrix in="SourceGraphic" type="matrix" values="0 0 0 0 1 0 0 0 0 1 0 0 0 0 1 0 0 0 1 0"/></filter><clipPath id="b"><path d="m96.492188 576h12.507812v14h-12.507812zm0 0"/></clipPath><mask id="c"><g filter="url(#a)"><path d="m0 0h595.276v841.89001h-595.276z" fill-opacity=".880005"/></g></mask><clipPath id="d"><path d="m.523438.875h12.3125v12.308594h-12.3125zm0 0"/></clipPath><clipPath id="e"><path d="m0 0h13v14h-13z"/></clipPath><mask id="f"><g filter="url(#a)"><path d="m0 0h595.276v841.89001h-595.276z" fill-opacity=".880005"/></g></mask><clipPath id="g"><path d="m.894531.875h12.3125v12.308594h-12.3125zm0 0"/></clipPath><clipPath id="h"><path d="m0 0h14v14h-14z"/></clipPath><clipPath id="i"><path d="m121 576h12.72266v14h-12.72266zm0 0"/></clipPath><mask id="j"><g filter="url(#a)"><path d="m0 0h595.276v841.89001h-595.276z" fill-opacity=".880005"/></g></mask><clipPath id="k"><path d="m.265625.875h12.3125v12.308594h-12.3125zm0 0"/></clipPath><clipPath id="l"><path d="m0 0h13v14h-13z"/></clipPath><clipPath id="m"><path d="m96.492188 568h12.507812v13h-12.507812zm0 0"/></clipPath><mask id="n"><g filter="url(#a)"><path d="m0 0h595.276v841.89001h-595.276z" fill-opacity=".880005"/></g></mask><clipPath id="o"><path d="m.523438.269531h12.3125v12.289063h-12.3125zm0 0"/></clipPath><clipPath id="p"><path d="m0 0h13v13h-13z"/></clipPath><mask id="q"><g filter="url(#a)"><path d="m0 0h595.276v841.89001h-595.276z" fill-opacity=".880005"/></g></mask><clipPath id="r"><path d="m.894531.269531h12.3125v12.289063h-12.3125zm0 0"/></clipPath><clipPath id="s"><path d="m0 0h14v13h-14z"/></clipPath><clipPath id="t"><path d="m121 568h12.72266v13h-12.72266zm0 0"/></clipPath><mask id="u"><g filter="url(#a)"><path d="m0 0h595.276v841.89001h-595.276z" fill-opacity=".880005"/></g></mask><clipPath id="v"><path d="m.265625.269531h12.3125v12.3125h-12.3125zm0 0"/></clipPath><clipPath id="w"><path d="m0 0h13v13h-13z"/></clipPath><symbol id="x" overflow="visible"/><symbol id="y" overflow="visible"/><symbol id="z" overflow="visible"/><symbol id="A" overflow="visible"/><symbol id="B" overflow="visible"/><g transform="translate(-38.672105 -203.39572)"><g transform="matrix(.35277779 0 0 .35277779 4.753072 3.055144)"><use fill="#0073c7" height="100%" width="100%" x="96.520599" xlink:href="#x" y="148.9324"/><use height="100%" width="100%" x="41.047699" xlink:href="#y" y="185.20171"/><use height="100%" width="100%" x="42.294102" xlink:href="#y" y="236.20171"/><use height="100%" width="100%" x="259.76749" xlink:href="#y" y="287.20169"/><use height="100%" width="100%" x="299.72751" xlink:href="#y" y="287.20169"/><use fill="#0073c7" height="100%" width="100%" x="351.6257" xlink:href="#z" y="86.866096"/><use height="100%" width="100%" x="393.76959" xlink:href="#y" y="236.20171"/><use height="100%" width="100%" x="412.51361" xlink:href="#y" y="236.20171"/><use height="100%" width="100%" x="30.836399" xlink:href="#A" y="779.87421"/><use height="100%" width="100%" x="535.90918" xlink:href="#A" y="779.87421"/><use height="100%" width="100%" x="540.56641" xlink:href="#A" y="786.87622"/><use height="100%" width="100%" x="528.8382" xlink:href="#A" y="793.87817"/><use height="100%" width="100%" x="460.39981" xlink:href="#A" y="800.88019"/><use height="100%" width="100%" x="523.01343" xlink:href="#A" y="800.88019"/><use height="100%" width="100%" x="49.118401" xlink:href="#A" y="807.8822"/><use height="100%" width="100%" x="106.5556" xlink:href="#B" y="313.70721"/><use height="100%" width="100%" x="180.07651" xlink:href="#y" y="416.8869"/><use height="100%" width="100%" x="188.8333" xlink:href="#y" y="427.08691"/><g clip-path="url(#b)"><g clip-path="url(#e)" height="100%" mask="url(#c)" transform="translate(96 576)" width="100%"><g clip-path="url(#d)"><path d="m6.710938 4.558594c.675781 0 1.265625.242187 1.75.722656.480468.484375.722656 1.058594.722656 1.738281 0 .675782-.242188 1.257813-.722656 1.742188-.484375.472656-1.101563.722656-1.78125.722656-.679688 0-1.238282-.25-1.71875-.722656-.484375-.484375-.726563-1.066406-.726563-1.742188 0-.679687.242188-1.253906.726563-1.738281.480468-.480469 1.070312-.722656 1.75-.722656m-4.386719-1.886719c-1.195313 1.207031-1.800781 2.648438-1.800781 4.355469 0 1.703125.605468 3.144531 1.800781 4.351562 1.207031 1.199219 2.648437 1.800782 4.355469 1.800782 1.703125 0 3.144531-.601563 4.351562-1.800782 1.132813-1.132812 1.726563-2.46875 1.796875-4.027343.0078-.113282.0078-.21875.0078-.324219v-.160156c-.03905-1.628907-.636706-3.023438-1.804675-4.195313-1.207031-1.207031-2.632812-1.796875-4.335937-1.796875-1.707032 0-3.164063.589844-4.371094 1.796875" fill="#70bd42"/></g></g></g></g><g clip-path="url(#h)" height="100%" mask="url(#f)" transform="matrix(.35277779 0 0 .35277779 42.853073 206.25515)" width="100%"><g clip-path="url(#g)"><path d="m7.070313 4.558594c.6875 0 1.277343.242187 1.761718.722656.480469.484375.722657 1.058594.722657 1.738281 0 .675782-.242188 1.257813-.722657 1.742188-.484375.472656-1.074218.722656-1.761718.722656s-1.257813-.25-1.738282-.722656c-.484375-.484375-.726562-1.066406-.726562-1.742188 0-.679687.242187-1.253906.726562-1.738281.480469-.480469 1.050782-.722656 1.738282-.722656m-4.371094-1.886719c-1.207031 1.207031-1.804688 2.648438-1.804688 4.355469 0 1.703125.597657 3.144531 1.804688 4.351562 1.199219 1.199219 2.671875 1.800782 4.371094 1.800782 1.695312 0 3.132812-.601563 4.332031-1.800782 1.132812-1.132812 1.722656-2.46875 1.796875-4.027343 0-.113282.0078-.21875.0078-.324219v-.160156c-.03905-1.628907-.6328-3.023438-1.804675-4.195313-1.199219-1.207031-2.636719-1.796875-4.332031-1.796875-1.699219 0-3.171875.589844-4.371094 1.796875" fill="#70bd42"/></g></g><g clip-path="url(#i)" transform="matrix(.35277779 0 0 .35277779 4.753072 3.055144)"><g clip-path="url(#l)" height="100%" mask="url(#j)" transform="translate(121 576)" width="100%"><g clip-path="url(#k)"><path d="m6.433594 4.582031c.6875 0 1.285156.21875 1.769531.703125.484375.480469.722656 1.054688.722656 1.734375 0 .679688-.238281 1.257813-.722656 1.742188-.484375.472656-1.082031.722656-1.769531.722656s-1.25-.25-1.730469-.722656c-.484375-.484375-.726562-1.0625-.726562-1.742188 0-.679687.242187-1.253906.726562-1.734375.480469-.484375 1.042969-.703125 1.730469-.703125m-4.363281-1.910156c-1.207032 1.207031-1.804688 2.648438-1.804688 4.355469 0 1.703125.597656 3.144531 1.804688 4.351562 1.207031 1.199219 2.667968 1.804688 4.363281 1.804688 1.695312 0 3.140625-.605469 4.339844-1.804688 1.132812-1.132812 1.722656-2.46875 1.796875-4.027343 0-.113282.0078-.21875.0078-.324219v-.160156c-.03905-1.628907-.6328-3.023438-1.804675-4.195313-1.199219-1.207031-2.644532-1.796875-4.339844-1.796875-1.695313 0-3.15625.589844-4.363281 1.796875" fill="#70bd42"/></g></g></g><g clip-path="url(#m)" transform="matrix(.35277779 0 0 .35277779 4.753072 3.055144)"><g clip-path="url(#p)" height="100%" mask="url(#n)" transform="translate(96 568)" width="100%"><g clip-path="url(#o)"><path d="m6.679688 3.960938c.679687 0 1.296875.238281 1.777343.722656.484375.484375.726563 1.054687.726563 1.734375 0 .679687-.242188 1.269531-.726563 1.742187-.480468.476563-1.097656.714844-1.777343.714844-.679688 0-1.238282-.238281-1.722657-.714844-.480468-.472656-.722656-1.0625-.722656-1.742187 0-.679688.242188-1.25.722656-1.734375.484375-.484375 1.042969-.722656 1.722657-.722656m6.148437 2.789062c.0078-.113281.0078-.21875.0078-.324219v-.160156c-.03905-1.628906-.636706-3.023437-1.804675-4.191406-1.207031-1.207031-2.648437-1.804688-4.351562-1.804688-1.707032 0-3.148438.597657-4.355469 1.804688-1.199219 1.207031-1.800781 2.648437-1.800781 4.351562 0 1.699219.601562 3.152344 1.800781 4.351563 1.207031 1.199219 2.648437 1.78125 4.355469 1.78125 1.703125 0 3.144531-.582031 4.351562-1.78125 1.132813-1.121094 1.726563-2.472656 1.796875-4.027344" fill="#70bd42"/></g></g></g><g clip-path="url(#s)" height="100%" mask="url(#q)" transform="matrix(.35277779 0 0 .35277779 42.853073 203.43293)" width="100%"><g clip-path="url(#r)"><path d="m7.070313 3.960938c.6875 0 1.277343.238281 1.761718.722656.480469.484375.722657 1.054687.722657 1.734375 0 .679687-.242188 1.269531-.722657 1.742187-.484375.476563-1.078125.714844-1.761718.714844-.6875 0-1.257813-.238281-1.738282-.714844-.484375-.472656-.726562-1.0625-.726562-1.742187 0-.679688.242187-1.25.726562-1.734375.480469-.484375 1.050782-.722656 1.738282-.722656m6.128906 2.789062c0-.113281.0078-.21875.0078-.324219v-.160156c-.03905-1.628906-.6328-3.023437-1.804675-4.191406-1.199219-1.207031-2.636719-1.804688-4.332031-1.804688-1.699219 0-3.171875.597657-4.371094 1.804688-1.207031 1.207031-1.804688 2.648437-1.804688 4.351562 0 1.699219.597657 3.152344 1.804688 4.351563 1.199219 1.199219 2.671875 1.78125 4.371094 1.78125 1.695312 0 3.132812-.582031 4.332031-1.78125 1.132812-1.121094 1.722656-2.472656 1.796875-4.027344" fill="#70bd42"/></g></g><g clip-path="url(#t)" transform="matrix(.35277779 0 0 .35277779 4.753072 3.055144)"><g clip-path="url(#w)" height="100%" mask="url(#u)" transform="translate(121 568)" width="100%"><g clip-path="url(#v)"><path d="m8.203125 4.683594c.484375.484375.722656 1.054687.722656 1.734375 0 .679687-.238281 1.265625-.722656 1.742187-.484375.476563-1.082031.714844-1.769531.714844s-1.25-.238281-1.730469-.714844c-.484375-.476562-.722656-1.0625-.722656-1.742187 0-.679688.238281-1.25.722656-1.734375.480469-.484375 1.042969-.722656 1.730469-.722656s1.285156.238281 1.769531.722656m4.375 1.742187v-.160156c-.039062-1.628906-.632812-3.023437-1.804687-4.191406-1.199219-1.207031-2.644532-1.804688-4.339844-1.804688-1.695313 0-3.15625.597657-4.363281 1.804688-1.207032 1.207031-1.804688 2.648437-1.804688 4.351562 0 1.699219.597656 3.152344 1.804688 4.351563 1.207031 1.199219 2.667968 1.804687 4.363281 1.804687 1.695312 0 3.140625-.605468 4.339844-1.804687 1.132812-1.121094 1.722656-2.472656 1.796875-4.027344 0-.113281.0078-.21875.0078-.324219" fill="#70bd42"/></g></g></g><path d="m40.477337 212.8656v-.007c0-.56086.41203-.98668.972894-.98668.412034 0 .7152.23014.859896.56776l-.318329.14056c-.09646-.19568-.278363-.36243-.541567-.36243-.343133 0-.599447.26459-.599447.63666v.007c0 .3762.267338.63665.606337.63665.275607 0 .46302-.1695.545701-.37896l.326598.11576c-.130916.36793-.449241.6146-.879189.6146-.556729 0-.972894-.4203-.972894-.98392" fill="#70bd42"/><path d="m44.147051 212.85458c0-.37208-.278363-.63666-.621495-.63666-.33624 0-.610472.26458-.610472.63666v.007c0 .37621.281122.63666.617361.63666.347268 0 .614606-.26045.614606-.63666zm.391361-.94396v1.89894h-.365178v-.33624c-.137805.23151-.365181.3762-.680751.3762-.556726 0-.950846-.4203-.950846-.98392v-.007c0-.56086.391361-.98805.950846-.98805.31557 0 .542946.14193.680751.37344v-.33348zm0 0" fill="#70bd42"/><path d="m44.859497 213.55324.148829-.26872c.129533.12678.367934.27148.643541.27561.238404 0 .383096-.0978.383096-.24942 0-.10198-.07304-.1888-.304546-.27561-.545702-.20257-.715201-.35002-.715201-.63666.0041-.32108.307301-.53467.686262-.52778.278363.008.48507.11989.596692.21359l-.09784.29353c-.0937-.073-.325215-.19155-.501604-.19155-.144695-.004-.31557.0469-.31557.20532 0 .11989.124022.20258.369312.30042.398255.16261.63252.29628.636655.59669-.0041.34726-.278363.57464-.737253.57877-.373447 0-.669724-.18465-.79237-.31419" fill="#70bd42"/><path d="m46.736384 211.91062h.365181v1.89894h-.365181zm-.02205-.49058c0-.113.09095-.21773.213597-.21773.118512 0 .213596.10473.213596.21773 0 .11851-.09784.21222-.213596.21222-.119888 0-.213597-.0937-.213597-.21222" fill="#70bd42"/><path d="m47.640377 211.91062h.365181v.31557c.08682-.18466.314191-.3514.563619-.3514.502984 0 .748274.28939.748274.81442v1.12035h-.365182v-1.09141c0-.3266-.162606-.49609-.440972-.49609-.267338 0-.469911.18741-.505739.46991v1.11759h-.365181zm0 0" fill="#70bd42"/><path d="m51.234301 212.86147v-.007c0-.37207-.278363-.63666-.622872-.63666-.336243 0-.610471.26459-.610471.63666v.007c0 .3762.281118.63665.618737.63665.347267 0 .614606-.26045.614606-.63665m-1.602659.004v-.007c0-.56086.423058-.98667.983922-.98667.56086 0 .986673.41479.986673.9784v.008c0 .56362-.423058.99081-.986673.99081-.55673 0-.983922-.4203-.983922-.98392" fill="#70bd42"/><use height="100%" transform="matrix(.35277779 0 0 .35277779 4.753072 3.055144)" width="100%" x="42.119701" xlink:href="#y" y="746.0993"/><use height="100%" transform="matrix(.35277779 0 0 .35277779 4.753072 3.055144)" width="100%" x="86.718102" xlink:href="#y" y="746.0993"/><use height="100%" transform="matrix(.35277779 0 0 .35277779 4.753072 3.055144)" width="100%" x="100.5405" xlink:href="#y" y="746.0993"/><use height="100%" transform="matrix(.35277779 0 0 .35277779 4.753072 3.055144)" width="100%" x="224.2244" xlink:href="#y" y="746.0993"/><use height="100%" transform="matrix(.35277779 0 0 .35277779 4.753072 3.055144)" width="100%" x="413.31461" xlink:href="#y" y="756.29932"/><use fill="#0073c7" height="100%" transform="matrix(.35277779 0 0 .35277779 4.753072 3.055144)" width="100%" x="296.85031" xlink:href="#x" y="384.20801"/><use fill="#0073c7" height="100%" transform="matrix(.35277779 0 0 .35277779 4.753072 3.055144)" width="100%" x="315.71069" xlink:href="#x" y="384.20801"/></g></svg>