<?xml version="1.0" encoding="UTF-8"?> <svg xmlns="http://www.w3.org/2000/svg" xmlns:xlink="http://www.w3.org/1999/xlink" width="1920px" height="780px" viewBox="0 0 1920 780" version="1.1"><title>BetRivers_Casino_logo_stacked_Drop_1920_780</title><g id="BetRivers_Casino_logo_stacked_Drop_1920_780" stroke="none" stroke-width="1" fill="none" fill-rule="evenodd"><g id="Group" transform="translate(270.000000, 92.000000)" fill-rule="nonzero"><g><g transform="translate(985.008607, 527.382964)" fill="#122A53"><path d="M0,34.8168201 L0,34.6258188 C0,15.5938971 14.2568876,0 34.4348174,0 C46.863549,0 54.3262452,4.2975307 60.7384339,10.4232173 L53.180237,19.1274223 C47.7230552,14.1477439 42.0885149,10.9007207 34.3393167,10.9007207 C21.7195837,10.9007207 12.333231,21.323938 12.333231,34.4348174 L12.333231,34.6258188 C12.333231,47.7366981 21.6104401,58.3509168 34.4348174,58.3509168 C42.661519,58.3509168 47.9276995,55.1038936 53.6577404,49.7422125 L61.2159373,57.39591 C54.2307445,64.6676048 46.577047,69.2516375 34.0528147,69.2516375 C14.4478889,69.2516375 0,54.0397431 0,34.8168201 L0,34.8168201 Z" id="Path"></path><path d="M98.3384167,0.668504775 L109.239137,0.668504775 L138.707919,68.1056293 L126.265545,68.1056293 L119.471353,51.9387281 L87.8060558,51.9387281 L80.9163637,68.1056293 L68.8696348,68.1056293 L98.3247738,0.668504775 L98.3384167,0.668504775 Z M115.173823,41.5155108 L103.604597,14.734391 L92.1308724,41.5155108 L115.187466,41.5155108 L115.173823,41.5155108 Z" id="Shape"></path><path d="M146.648119,58.3509168 L153.728812,49.9332138 C160.141001,55.4858963 166.64869,58.6374188 174.875392,58.6374188 C182.147087,58.6374188 186.73112,55.1993943 186.73112,50.2197159 L186.73112,50.0287145 C186.73112,45.2536804 184.0571,42.661519 171.614726,39.7964986 C157.357838,36.358474 149.322138,32.142801 149.322138,19.8095701 L149.322138,19.6185687 C149.322138,8.14484389 158.885849,0.204644319 172.18773,0.204644319 C181.942442,0.204644319 189.691641,3.16516547 196.485832,8.6223473 L190.169144,17.5175537 C184.138958,13.0290216 178.122415,10.6278616 171.996729,10.6278616 C165.107037,10.6278616 161.096008,14.1613869 161.096008,18.5680612 L161.096008,18.7590626 C161.096008,23.9297424 164.15203,26.2217587 177.071908,29.2777806 C191.233295,32.7158051 198.504989,37.7909842 198.504989,48.8827063 L198.504989,49.0737077 C198.504989,61.6115829 188.654776,69.0606362 174.58889,69.0606362 C164.356674,69.0606362 154.697462,65.5271109 146.661762,58.3509168 L146.648119,58.3509168 Z" id="Path"></path><polygon id="Path" points="213.989743 1.14600819 225.74997 1.14600819 225.74997 68.1056293 213.989743 68.1056293"></polygon><polygon id="Path" points="244.59089 1.14600819 255.491611 1.14600819 291.358938 47.4501961 291.358938 1.14600819 302.928164 1.14600819 302.928164 68.1056293 293.077951 68.1056293 256.160115 20.4644319 256.160115 68.1056293 244.59089 68.1056293"></polygon><path d="M318.153701,34.8168201 L318.153701,34.6258188 C318.153701,15.7848985 332.697091,0 353.257023,0 C373.816956,0 388.169344,15.5938971 388.169344,34.4348174 L388.169344,34.6258188 C388.169344,53.4667391 373.625955,69.2516375 353.066022,69.2516375 C332.506089,69.2516375 318.153701,53.6577404 318.153701,34.8168201 Z M375.836113,34.8168201 L375.836113,34.6258188 C375.836113,21.6104401 366.367903,10.9007207 353.066022,10.9007207 C339.764141,10.9007207 330.486932,21.4194387 330.486932,34.4348174 L330.486932,34.6258188 C330.486932,47.6411974 339.955143,58.3509168 353.257023,58.3509168 C366.558904,58.3509168 375.836113,47.8321988 375.836113,34.8168201 Z" id="Shape"></path></g><g transform="translate(0.000000, 0.000000)"><g fill="#122A53"><path d="M102.500446,414.760374 C100.685933,411.649781 98.4075599,408.78476 97.2206228,405.510451 C92.6365901,392.836146 94.3692453,380.3392 99.8127842,368.401615 C107.766627,350.965919 121.177651,338.359829 136.907978,327.922968 C151.492296,318.23647 167.618269,312.056212 184.126244,306.571744 C198.260345,301.864925 211.889656,295.957526 224.045529,287.048676 C241.863227,273.978726 247.388624,253.63708 242.572661,236.433315 C238.097772,220.443772 226.160187,211.644066 210.689076,208.506187 C176.44526,201.589209 146.526261,210.238842 122.41916,236.078598 C105.924828,253.759867 97.3979812,275.547666 91.8589416,298.686117 C85.2966805,326.040241 84.4917462,353.885511 85.6786832,381.77171 C87.0429787,413.614366 91.2995805,445.17052 97.1387651,476.508387 C97.2888376,477.286035 97.2615517,478.090969 97.3297664,479.182406 C95.8563273,479.250621 94.5738896,479.359764 93.3050948,479.359764 C66.7013334,479.359764 40.0975719,479.291549 13.5074534,479.455265 C9.94664226,479.482551 8.80063407,478.281971 8.45956021,474.966733 C6.16754384,452.687788 3.0842361,430.463415 1.55622519,408.143541 C0.191929726,388.252113 -0.326502549,368.224256 0.20557268,348.305542 C1.21515132,311.278564 7.19076543,275.056519 21.9797282,240.758131 C37.9965569,203.622009 62.7448765,174.330585 99.1033505,155.612452 C116.675476,146.567173 135.379967,140.987204 154.83482,137.876611 C170.265002,135.407236 185.81797,134.424943 201.42551,135.038876 C231.385438,136.225813 260.008357,142.242356 285.043179,159.869054 C309.000207,176.745388 323.257095,199.897482 327.104408,228.875118 C330.706148,255.997312 326.026614,281.61878 309.559568,304.211513 C296.503261,322.124713 278.821991,334.239656 258.534918,342.288999 C246.638262,347.009462 234.086743,350.051841 221.821727,353.844582 C220.63479,354.212942 219.447853,354.554016 218.274559,354.908732 C218.274559,355.208877 218.260916,355.509022 218.247273,355.82281 C219.393281,356.068384 220.539289,356.354886 221.685298,356.55953 C248.930278,361.566494 273.296595,373.285792 295.398181,389.548194 C314.0481,403.259364 332.002228,417.898254 350.256502,432.127855 C373.354024,450.150198 397.570268,466.262528 425.442824,476.112741 C442.210016,482.033783 459.441067,485.690095 477.204194,486.95889 C515.18618,489.687481 551.858442,484.55773 586.661619,468.58183 C619.022707,453.724653 645.21718,431.609423 664.617461,401.622209 C665.367824,400.448915 666.213687,399.343836 667.127765,398.034112 C674.303959,402.304357 679.106279,408.348186 682.748948,415.319735 C692.135301,433.246578 691.848799,451.609995 684.495246,470.068912 C676.718762,489.564694 663.59424,505.035805 647.468268,518.078469 C621.260152,539.293264 590.850006,551.244492 558.17513,558.052326 C532.703733,563.359436 506.904906,564.655516 481.010579,563.645938 C418.280273,561.203849 361.989443,540.780346 312.943021,501.556851 C293.119808,485.703738 274.347102,468.554544 255.260609,451.787353 C237.497482,436.179813 219.775284,420.544987 198.683276,409.412336 C180.797363,399.985054 161.833656,394.773446 141.532939,395.769381 C130.386645,396.3151 119.41771,398.361543 110.536146,406.001597 C107.807556,408.361829 105.61104,411.335993 102.500446,414.774017 L102.500446,414.760374 Z" id="Path"></path><path d="M1160.03407,479.359764 L1155.75018,479.359764 C1130.93365,479.359764 1106.10347,479.305192 1081.28694,479.427979 C1078.28549,479.442219 1076.7029,478.472972 1075.27039,475.826239 C1062.36416,451.937426 1049.25328,428.157756 1036.36069,404.268942 C1034.85996,401.472136 1033.22281,400.462558 1030.05764,400.544416 C1021.08058,400.789989 1012.08987,400.830918 1003.11281,400.626273 C999.688426,400.544416 999.019922,401.785924 999.047207,404.910161 C999.156351,428.198685 999.115422,451.487208 999.101779,474.762089 C999.101779,479.359764 999.101779,479.373407 994.422246,479.373407 C975.513111,479.373407 956.590333,479.305192 937.681198,479.442219 C934.46146,479.468908 933.479168,478.568473 933.479168,475.294164 C933.561025,397.51568 933.561025,319.737195 933.479168,241.958711 C933.479168,238.834475 934.202244,237.661181 937.585697,237.674824 C970.096858,237.824896 1002.60802,237.33375 1035.09189,238.015897 C1059.37635,238.520687 1083.29245,242.23157 1105.55775,252.818503 C1122.91159,261.072491 1136.80012,273.051005 1143.03495,291.82371 C1153.94931,324.730517 1144.20824,362.125855 1108.6547,382.017283 C1102.91102,385.23702 1102.3653,387.679109 1105.8579,393.204506 C1123.19809,420.654131 1140.52465,448.117398 1157.8512,475.580666 C1158.46513,476.549316 1158.99721,477.572537 1160.00679,479.359764 L1160.03407,479.359764 Z M1031.3128,297.82661 C1021.6263,297.82661 1011.9398,297.922111 1002.2533,297.772039 C999.265495,297.717467 998.419632,298.767974 998.446917,301.660281 C998.569704,314.293657 998.59699,326.940676 998.433274,339.574051 C998.392346,342.671002 999.238209,343.598723 1002.40337,343.571437 C1020.00279,343.421365 1037.6022,343.189434 1055.20161,343.639652 C1063.4556,343.844296 1069.58128,340.747346 1074.65646,334.785374 C1080.82308,327.568251 1082.3238,319.396122 1078.39463,310.732845 C1074.54732,302.246928 1067.78041,297.772039 1058.24399,297.812967 C1049.26692,297.867539 1040.28986,297.812967 1031.3128,297.812967 L1031.3128,297.82661 Z" id="Shape"></path><path d="M715.887685,358.59233 C715.887685,319.94184 715.887685,281.291349 715.887685,242.640859 C715.887685,237.743038 715.901328,237.743038 720.717291,237.743038 C783.133808,237.743038 845.536682,237.743038 907.9532,237.743038 C912.646376,237.743038 912.660019,237.743038 912.660019,242.327071 C912.660019,258.289328 912.660019,274.237942 912.660019,290.200199 C912.660019,294.866089 912.646376,294.879732 908.035057,294.879732 C867.379053,294.879732 826.709405,294.879732 786.0534,294.879732 C782.89733,294.879732 781.319295,296.494149 781.319295,299.722981 C781.319295,307.758681 781.455725,315.808025 781.25108,323.830082 C781.169223,327.063462 782.096943,328.004826 785.384896,328.004826 C822.029872,327.895682 858.674848,327.922968 895.306181,327.950254 C901.963943,327.950254 901.21358,327.295392 901.227223,333.775796 C901.254509,349.383336 901.131722,364.977233 901.322724,380.584773 C901.363653,384.104655 900.504146,385.196092 896.834192,385.182449 C859.834499,385.046019 822.834806,385.14152 785.848756,385.018733 C782.369803,385.018733 781.128294,385.755453 781.237437,389.493622 C781.523939,399.057333 781.469368,408.648331 781.25108,418.212042 C781.182865,421.513637 782.21973,422.332214 785.425824,422.318571 C826.791263,422.22307 868.170344,422.250356 909.535782,422.250356 C912.964712,422.250356 914.679176,423.983012 914.679176,427.448322 C914.679176,443.287792 914.597318,459.127263 914.748123,474.966733 C914.774677,478.241042 914.0516,479.441622 910.490789,479.441622 C847.023764,479.332478 783.543097,479.332478 720.076072,479.441622 C716.433403,479.441622 715.833113,478.104612 715.833113,474.898518 C715.914971,436.125241 715.887685,397.365607 715.887685,358.59233 L715.887685,358.59233 Z" id="Path"></path><path d="M1364.31003,316.503815 C1356.56083,312.465501 1349.6575,308.331685 1342.34487,305.152877 C1325.25025,297.703824 1307.32341,293.365364 1288.68713,291.932854 C1275.31704,290.909632 1262.01516,290.882347 1248.86335,293.583652 C1244.55218,294.470444 1240.17279,296.053026 1236.40733,298.304114 C1229.95421,302.16507 1229.74957,310.514558 1236.4619,313.80251 C1243.99281,317.486108 1252.19223,320.091912 1260.36436,322.097427 C1278.31849,326.517744 1296.57276,329.764767 1314.44503,334.526158 C1323.92689,337.050105 1333.14952,341.115705 1341.94923,345.549666 C1360.66736,354.976947 1372.27752,370.025126 1374.81511,391.226278 C1377.16169,410.844846 1374.11932,429.399265 1362.45459,445.839025 C1352.15416,460.355128 1337.73356,469.277621 1321.17101,474.980376 C1306.21833,480.137413 1290.76086,482.361214 1274.98961,482.975147 C1239.46335,484.353086 1204.96032,478.895904 1171.19401,468.077041 C1168.50635,467.217535 1167.51041,466.030598 1167.5377,463.124648 C1167.67413,443.028576 1167.60591,422.932504 1167.61955,402.836432 C1167.61955,401.785924 1167.71506,400.735417 1167.76963,399.261978 C1168.86106,399.712195 1169.72057,399.957769 1170.47093,400.407986 C1192.09501,413.518865 1215.54725,421.459065 1240.623,424.201299 C1258.11327,426.111312 1275.69904,426.69796 1293.09381,422.946147 C1296.02704,422.318571 1298.98756,421.077062 1301.55244,419.521765 C1307.56898,415.865454 1308.29206,408.157184 1302.93038,403.641366 C1300.28364,401.417565 1297.03662,399.439336 1293.74867,398.552544 C1279.40992,394.732517 1265.03025,390.994347 1250.52779,387.91104 C1233.20124,384.227442 1215.88833,380.721203 1199.98064,372.439929 C1179.9255,362.003069 1168.31535,345.890739 1166.0779,323.161577 C1164.69996,309.23212 1165.09561,295.56188 1170.64829,282.464644 C1178.07006,264.974376 1191.52201,253.609795 1208.43927,245.942454 C1222.43695,239.59848 1237.29412,236.569744 1252.50602,234.93259 C1268.78206,233.186292 1285.03082,233.322721 1301.26594,235.055376 C1321.3893,237.210963 1341.10337,241.16742 1359.8215,249.230406 C1363.02759,250.608345 1364.44646,252.381929 1364.40553,256.106455 C1364.20089,274.78366 1364.31003,293.460865 1364.31003,312.13807 C1364.31003,313.516008 1364.31003,314.893947 1364.31003,316.517458 L1364.31003,316.503815 Z" id="Path"></path><path d="M516.823334,106.320457 C508.910421,100.945133 500.233502,97.6298947 490.369645,95.6653092 C493.957742,94.3146567 497.054693,93.2368633 500.056143,91.9817115 C523.713026,82.1042124 531.666869,60.8212032 526.59169,39.2244061 C523.208237,24.817446 513.003307,16.0859551 500.138001,10.1921987 C484.530461,3.04329048 467.845127,0.478415017 450.886935,0.260127743 C421.704655,-0.121874985 392.508732,0.178270016 363.312809,0.000448094739 C359.601926,-0.026374303 358.83792,1.14691979 358.851385,4.61223026 C358.947064,67.8473248 358.919778,131.082419 358.919778,194.303871 C358.919778,198.969761 358.919778,198.983404 363.585668,198.983404 C387.338052,198.983404 411.104079,199.297192 434.856463,198.874261 C448.390274,198.628688 461.978657,197.837396 475.403324,196.118384 C490.874435,194.140155 505.458753,189.146834 518.064843,179.392122 C540.930435,161.697209 542.090086,123.496937 516.823334,106.3341 L516.823334,106.320457 Z M406.001614,70.6987023 C406.16533,63.9727257 406.124401,57.2467491 406.001614,50.5207725 C405.960685,48.1741843 406.560975,47.1373197 409.139494,47.1508299 C427.189123,47.2464634 445.252395,47.1100338 463.302023,47.2601063 C471.010293,47.3283211 475.294181,52.458072 475.253542,60.8484891 C475.225966,68.9660471 470.873863,73.8911537 463.233809,74.0275832 C454.270387,74.1912987 445.293323,74.0685121 436.329902,74.0685121 L436.329902,74.095798 C427.366481,74.095798 418.389417,74.0139403 409.425996,74.1503698 C406.806548,74.1912987 405.919756,73.3590785 405.974328,70.7123453 L406.001614,70.6987023 Z M475.266895,136.635102 C474.96675,143.306507 470.546432,148.21797 463.984171,148.395329 C454.78882,148.640902 445.579825,148.463544 436.370831,148.463544 C427.40741,148.463544 418.430346,148.381686 409.466925,148.518115 C406.888406,148.559044 405.919756,147.849611 406.001614,145.148306 C406.178973,138.899832 406.056186,132.637716 406.056186,126.389243 C406.056186,121.696067 406.056186,121.682424 410.612933,121.682424 C425.961257,121.682424 441.295938,121.682424 456.644262,121.682424 C459.563854,121.682424 462.538018,121.43685 465.403038,121.873425 C472.306373,122.937575 475.648897,128.149184 475.266895,136.648745 L475.266895,136.635102 Z" id="Shape"></path><path d="M699.74807,238.056826 C695.54604,248.3709 691.562297,258.193827 687.537625,268.003112 C672.039229,305.753167 656.827334,343.639652 640.755934,381.144134 C637.263337,389.288978 631.260437,396.642531 625.325752,403.409436 C600.42736,431.759496 569.321424,449.577194 532.212587,456.903461 C528.815491,457.571966 527.928699,456.316814 526.864549,453.71101 C503.084879,395.646595 479.250637,337.595823 455.416396,279.545051 C450.259359,266.993533 445.102322,254.455658 439.972571,241.90414 C439.495068,240.730845 439.140351,239.516622 438.526418,237.729395 L442.823949,237.729395 C464.448032,237.729395 486.085758,237.79761 507.709841,237.661046 C510.834077,237.647538 512.212016,238.670759 513.262523,241.590352 C530.848292,290.404843 548.57049,339.164763 566.251759,387.951968 C566.497332,388.620473 566.620119,389.357193 567.002121,389.930197 C567.588768,390.830632 568.352774,391.621923 569.048565,392.467786 C569.730712,391.621923 570.713005,390.898847 571.067722,389.930197 C576.797763,374.322657 582.459589,358.687831 588.135058,343.066648 C600.441003,309.150263 612.760591,275.233878 625.052893,241.30385 C625.816899,239.189192 626.526332,237.661046 629.37771,237.674824 C651.834013,237.79761 674.290316,237.743038 696.74662,237.756681 C697.551554,237.756681 698.356488,237.920397 699.761712,238.070469 L699.74807,238.056826 Z" id="Path"></path><path d="M552.499661,99.4171217 C552.499661,67.8609678 552.499661,36.3048138 552.499661,4.74865981 C552.499661,0.0964122883 552.513304,0.0827693337 557.138265,0.0827693337 C607.958271,0.0827693337 658.778277,0.123698198 709.611926,0.000911606159 C713.268238,0.000911606159 714.182315,1.07870502 714.127744,4.5985873 C713.923099,17.3547499 713.936742,30.1245554 714.127744,42.8943609 C714.182315,46.3869572 712.995378,47.2601063 709.666498,47.2464634 C676.814263,47.1373197 643.948385,47.1782486 611.096151,47.1918915 C607.776365,47.1918915 606.116472,48.8608797 606.116472,52.1988559 C606.116472,57.874325 606.116472,63.5497941 606.116472,69.2252632 C606.116472,72.4722864 607.703603,74.095798 610.877863,74.095798 C639.596283,74.095798 668.314702,74.095798 697.046765,74.095798 C702.194706,74.095798 704.768677,76.6515782 704.768677,81.7631385 C704.768677,93.3460069 704.768677,104.928875 704.768677,116.511744 C704.768677,121.177634 704.768677,121.191277 700.184644,121.191277 C670.279288,121.191277 640.373931,121.245849 610.482218,121.123062 C607.153337,121.123062 605.939114,121.900711 606.0619,125.40695 C606.321116,132.719574 606.321116,140.073126 606.0619,147.38575 C605.925471,150.932918 606.894121,151.983426 610.564075,151.969783 C643.307166,151.81971 676.036614,151.860639 708.779705,151.901568 C716.501618,151.901568 715.45111,150.878346 715.492039,158.723045 C715.546611,170.783417 715.423824,182.830146 715.561814,194.890518 C715.601183,197.878325 714.85082,199.051619 711.631083,199.038094 C659.85607,198.956118 608.094701,198.956118 556.319688,199.038094 C552.977164,199.038094 552.486018,197.646395 552.486018,194.795017 C552.567875,163.006933 552.526946,131.205206 552.526946,99.4171217 L552.499661,99.4171217 Z" id="Path"></path><path d="M824.335531,0.0827693337 C852.931164,0.0827693337 881.540439,0.137341152 910.136072,0.014373255 C913.58774,0.000911606159 914.842892,0.764917063 914.774677,4.50308662 C914.529104,17.2592492 914.583676,30.0290547 914.747391,42.7852172 C914.78832,46.16867 913.792384,47.2737493 910.35436,47.2464634 C892.509375,47.0963909 874.66439,47.1782486 856.819406,47.1782486 C852.139872,47.1782486 852.126229,47.1918915 852.126229,51.8304961 C852.126229,98.9805472 852.126229,146.130598 852.126229,193.294292 C852.126229,197.087034 850.26624,198.987952 846.546261,198.997047 C831.416224,198.997047 816.286188,198.901547 801.169794,199.066404 C797.608983,199.106191 796.558475,198.055683 796.558475,194.453943 C796.667619,147.058319 796.640333,99.6763379 796.640333,52.2807136 C796.640333,48.8881656 794.894035,47.1873439 791.401438,47.1782486 C773.788384,47.1782486 756.188973,47.1100338 738.575918,47.2464634 C735.26068,47.2737493 734.046457,46.455172 734.099258,42.9216468 C734.305674,30.0426976 734.305674,17.1637485 734.099258,4.28479935 C734.046457,0.751274109 735.247037,0.000911606159 738.548632,0.014373255 C767.144265,0.137341152 795.739898,0.0827693337 824.349174,0.0827693337 L824.335531,0.0827693337 Z" id="Path"></path><path d="M421.909299,444.447443 C417.625411,442.264571 414.023671,440.572844 410.558361,438.635545 C391.812941,428.171399 374.936607,415.074162 358.565061,401.308421 C357.473625,400.3807 356.914264,398.266042 356.900621,396.697102 C356.777834,380.502915 356.832406,364.322371 356.832406,348.128184 C356.832406,313.024862 356.832406,277.935183 356.832406,242.83186 C356.832406,239.439312 358.474108,237.738491 361.757512,237.729395 C380.543861,237.729395 399.330209,237.79761 418.130201,237.660683 C421.445439,237.633895 422.332231,238.725331 422.318742,241.917782 C422.250373,307.976969 422.264016,374.036155 422.250373,440.095341 C422.250373,441.241349 422.086658,442.373714 421.909299,444.461086 L421.909299,444.447443 Z" id="Path"></path><path d="M1375.96111,461.97864 C1376.60233,460.450629 1377.48912,459.181834 1378.63513,458.035826 C1379.78114,456.889818 1381.17272,456.003026 1382.70073,455.361807 C1384.22874,454.720588 1385.87954,454.338586 1387.53034,454.338586 C1389.30392,454.338586 1390.83193,454.720588 1392.35995,455.361807 C1393.88796,456.003026 1395.15675,456.889818 1396.30276,458.035826 C1397.44877,459.181834 1398.33556,460.450629 1398.97678,461.97864 C1399.618,463.506651 1400,465.157449 1400,466.931033 C1400,468.704617 1399.618,470.369057 1398.97678,471.883425 C1398.33556,473.411436 1397.44877,474.680231 1396.30276,475.826239 C1395.15675,476.972247 1393.88796,477.859039 1392.35995,478.500258 C1390.83193,479.141477 1389.18114,479.38705 1387.53034,479.38705 C1385.75676,479.38705 1384.22874,479.127834 1382.70073,478.500258 C1381.17272,477.859039 1379.78114,476.972247 1378.63513,475.826239 C1377.48912,474.680231 1376.60233,473.411436 1375.96111,471.883425 C1375.3199,470.355414 1374.93789,468.704617 1374.93789,466.931033 C1374.93789,465.157449 1375.3199,463.493008 1375.96111,461.97864 Z M1377.99391,471.269492 C1378.4987,472.538287 1379.26271,473.684295 1380.1495,474.707517 C1381.03629,475.730738 1382.1823,476.358314 1383.4511,476.999533 C1384.71989,477.504322 1386.12512,477.763539 1387.5167,477.763539 C1388.90828,477.763539 1390.3135,477.504322 1391.5823,476.999533 C1392.85109,476.494744 1393.87431,475.730738 1394.88389,474.707517 C1395.77068,473.684295 1396.53469,472.674716 1397.03948,471.269492 C1397.54427,470.000697 1397.80348,468.595473 1397.80348,466.944676 C1397.80348,465.416665 1397.54427,464.025083 1397.03948,462.756289 C1396.53469,461.487494 1395.77068,460.341486 1394.88389,459.454693 C1393.9971,458.567901 1392.85109,457.803896 1391.5823,457.162677 C1390.3135,456.657888 1389.04471,456.398672 1387.5167,456.398672 C1385.98869,456.398672 1384.71989,456.657888 1383.4511,457.162677 C1382.1823,457.667466 1381.03629,458.431472 1380.1495,459.454693 C1379.26271,460.341486 1378.4987,461.487494 1377.99391,462.756289 C1377.48912,464.025083 1377.22991,465.430308 1377.22991,466.944676 C1377.22991,468.472686 1377.48912,470.000697 1377.99391,471.269492 Z M1388.43077,459.700267 C1390.20436,459.700267 1391.4868,460.082269 1392.2508,460.723488 C1393.13759,461.364707 1393.5196,462.497072 1393.5196,463.902297 C1393.5196,465.171091 1393.13759,466.194313 1392.37359,466.821889 C1391.60958,467.463108 1390.72279,467.845111 1389.57678,467.967897 L1393.76517,474.448301 L1391.35037,474.448301 L1387.40755,468.090684 L1384.99275,468.090684 L1384.99275,474.448301 L1382.70073,474.448301 L1382.70073,459.823053 L1388.41713,459.823053 L1388.41713,459.700267 L1388.43077,459.700267 Z M1387.40755,466.18067 L1388.79913,466.18067 C1389.30392,466.18067 1389.68593,466.057884 1390.06793,465.921454 C1390.44993,465.798667 1390.70915,465.539451 1390.95472,465.157449 C1391.20029,464.775446 1391.33672,464.393443 1391.33672,463.765867 C1391.33672,463.261078 1391.21394,462.879075 1391.07751,462.619859 C1390.94108,462.360643 1390.6955,462.11507 1390.3135,461.97864 C1390.05429,461.855853 1389.67228,461.719424 1389.29028,461.596637 C1388.90828,461.596637 1388.52628,461.473851 1388.14427,461.473851 L1385.08825,461.473851 L1385.08825,466.18067 L1387.38027,466.18067 L1387.40755,466.18067 Z" id="Shape"></path></g><path d="M97.0978362,348.592044 C97.5480537,345.467808 97.9436994,342.343571 98.4348458,339.232978 C99.9219278,330.01034 101.286223,320.77406 102.97795,311.605995 C106.57969,292.014712 112.58259,273.282935 123.878956,256.611245 C135.175322,239.939554 150.155287,228.165684 169.787498,222.749431 C176.909121,220.784846 184.153529,219.475122 191.575297,219.829839 C201.521011,220.307342 210.921006,222.572073 218.792991,229.107048 C224.645819,233.977583 228.233916,240.144198 228.397631,247.893397 C228.643204,259.339835 224.400246,268.78076 215.395896,276.025169 C207.864985,282.082641 199.351781,286.434743 190.429289,289.913697 C181.493153,293.406293 172.366017,296.407743 163.388953,299.804839 C148.872849,305.30295 135.148037,312.288142 122.992164,322.070141 C113.892313,329.382764 105.815684,337.691324 98.7213478,346.968533 C98.2847733,347.527894 97.8618417,348.100898 97.4252671,348.660259 C97.3161235,348.632973 97.2069798,348.605687 97.1114792,348.578401 L97.0978362,348.592044 Z" id="Path" fill="#FDB61B"></path></g></g></g></g></svg> 