<?xml version="1.0" encoding="utf-8"?>
<!-- Generator: Adobe Illustrator 25.4.1, SVG Export Plug-In . SVG Version: 6.00 Build 0)  -->
<svg version="1.1" id="Layer_1" xmlns="http://www.w3.org/2000/svg" xmlns:xlink="http://www.w3.org/1999/xlink" x="0px" y="0px"
	 width="452.7px" height="180px" viewBox="0 0 452.7 180" style="enable-background:new 0 0 452.7 180;" xml:space="preserve">
<style type="text/css">
	.st0{fill:#FCB813;}
	.st1{fill:#8BC53F;}
	.st2{fill:#00377C;}
	.st3{fill:#FFFFFF;}
</style>
<path class="st0" d="M44.7,94.6l40,15.1c4,1.5,8.5-0.5,10-4.5c0,0,0,0,0,0l15-40c1.5-4-0.5-8.5-4.5-10c0,0,0,0,0,0l-40-15
	c-4-1.5-8.5,0.5-10,4.5c0,0,0,0,0,0l0,0l-15,40l0,0C38.6,88.6,40.6,93.1,44.7,94.6C44.6,94.6,44.6,94.6,44.7,94.6z"/>
<path class="st1" d="M35.6,86L35.6,86V43.3l0,0c0-4.3,3.5-7.7,7.7-7.7c0,0,0,0,0,0H86c4.3,0,7.7,3.5,7.7,7.7V86
	c0,4.3-3.5,7.8-7.7,7.8c0,0,0,0,0,0H43.3C39,93.8,35.6,90.3,35.6,86C35.6,86,35.6,86,35.6,86z"/>
<path class="st2" d="M40.1,84.6l15-40l0,0c1.5-4,6-6,10-4.5c0,0,0,0,0,0l28.6,10.8V86c0,4.3-3.5,7.8-7.7,7.8c0,0,0,0,0,0H43.3H43
	C40.1,91.7,38.9,88,40.1,84.6L40.1,84.6z"/>
<circle class="st3" cx="74.9" cy="74.9" r="7.3"/>
<path class="st2" d="M318.1,86.1h-4.5l-10.3-15.5v15.5h-4.5V63.5h4.5L313.5,79V63.5h4.5L318.1,86.1z"/>
<path class="st2" d="M338.2,63.5v3.7h-6v18.9h-4.5V67.2h-6v-3.7H338.2z"/>
<path class="st2" d="M352.9,81.8h-9l-1.5,4.3h-4.8l8.1-22.6h5.3l8.1,22.6h-4.8L352.9,81.8z M351.6,78.2l-3.3-9.5l-3.3,9.5H351.6z"/>
<path class="st2" d="M374.8,86.1l-5-8.8h-2.1v8.8h-4.5V63.5h8.5c1.5,0,3.1,0.3,4.5,0.9c1.1,0.5,2.1,1.4,2.8,2.5
	c0.6,1.1,0.9,2.3,0.9,3.5c0.1,3.1-2.1,5.9-5.1,6.6l5.4,9.1H374.8z M367.7,73.9h3.8c1,0.1,2-0.2,2.8-0.9c0.6-0.7,1-1.6,0.9-2.5
	c0.1-0.9-0.3-1.8-0.9-2.4c-0.8-0.6-1.8-0.9-2.8-0.9h-3.8V73.9z"/>
<path class="st2" d="M389.4,63.5v22.6h-4.5l1.9-1.9l-1.9,1.9V63.5H389.4z"/>
<path class="st2" d="M282.8,63.2c-6.4,0.1-11.5,5.3-11.5,11.7s5.3,11.5,11.7,11.5c6.4-0.1,11.5-5.2,11.5-11.6
	C294.5,68.4,289.3,63.2,282.8,63.2C282.8,63.2,282.8,63.2,282.8,63.2z M282.8,82.1c-4.1,0-7.3-3.3-7.3-7.4c0-4.1,3.3-7.3,7.4-7.3
	c4.1,0,7.3,3.3,7.3,7.3C290.2,78.8,286.9,82.1,282.8,82.1C282.8,82.1,282.8,82.1,282.8,82.1z"/>
<path class="st2" d="M405.4,63.2c-6.4,0.1-11.5,5.3-11.5,11.7s5.3,11.5,11.7,11.5c6.4-0.1,11.5-5.2,11.5-11.6
	C417.1,68.4,411.8,63.2,405.4,63.2C405.4,63.2,405.4,63.2,405.4,63.2z M405.4,82.1c-4.1,0-7.4-3.3-7.4-7.4c0-4.1,3.3-7.3,7.4-7.3
	c4.1,0,7.4,3.3,7.4,7.3C412.8,78.8,409.5,82.1,405.4,82.1L405.4,82.1z"/>
<circle class="st3" cx="54.4" cy="54.4" r="7.3"/>
<path class="st2" d="M123.3,95.8c0-0.8-0.3-1.7-0.9-2.3c-0.6-0.6-1.3-0.9-2.1-0.9h-6.6v35.6l3.7-3.7l-3.7,3.7h9.6L123.3,95.8
	L123.3,95.8z"/>
<path class="st2" d="M287.1,95.8c0-0.8-0.3-1.7-0.9-2.3c-0.6-0.6-1.3-0.9-2.1-0.9h-5.6v35.6l3.7-3.7l-3.7,3.7h8.6V95.8L287.1,95.8z"
	/>
<path class="st2" d="M124.2,82.4c0,0.8-0.2,1.5-0.5,2.2c-0.6,1.4-1.8,2.4-3.1,3c-0.7,0.3-1.5,0.5-2.3,0.5c-0.8,0-1.5-0.2-2.2-0.5
	c-1.4-0.6-2.5-1.6-3.1-3c-0.3-0.7-0.5-1.5-0.5-2.2c0-0.8,0.2-1.6,0.5-2.3c0.3-0.7,0.7-1.3,1.2-1.8c0.5-0.5,1.1-0.9,1.8-1.2
	c0.7-0.3,1.5-0.5,2.2-0.5c0.8,0,1.6,0.1,2.3,0.5c0.7,0.3,1.3,0.7,1.9,1.2c0.5,0.5,1,1.2,1.3,1.8C124.1,80.9,124.2,81.6,124.2,82.4z"
	/>
<path class="st2" d="M157.2,109.9c0,0.5,0.2,1,0.6,1.4c0.4,0.4,1,0.6,1.6,0.6h5.3v7.6c-1.2,0.5-2.4,1-3.7,1.3
	c-1.6,0.4-3.2,0.5-4.9,0.5c-2,0-4-0.3-5.8-1.1c-1.7-0.7-3.3-1.8-4.6-3.1c-1.3-1.4-2.4-3.1-3-5c-0.7-2.2-1.1-4.5-1.1-6.8
	c0-2.2,0.3-4.4,1-6.4c0.6-1.8,1.6-3.5,2.9-4.9c1.2-1.4,2.8-2.4,4.5-3.1c1.9-0.8,3.9-1.1,5.9-1.1c1.2,0,2.4,0.1,3.6,0.3
	c0.9,0.2,1.9,0.4,2.8,0.7c0.8,0.3,1.5,0.6,2.3,1c0.7,0.4,1.4,0.8,2,1.2c0.5,0.4,1.1,0.5,1.8,0.6c1,0,1.9-0.5,2.3-1.4l2.6-4.1
	l-0.3-0.2c-2-1.9-4.4-3.3-7-4.4c-3.1-1.2-6.4-1.7-9.8-1.7c-3.4,0-6.8,0.5-9.9,1.7c-5.7,2.1-10.2,6.6-12.4,12.3
	c-1.1,3-1.7,6.3-1.7,9.5c0,3.2,0.6,6.4,1.7,9.5c2.2,5.6,6.6,10.1,12.2,12.3c2.9,1.2,6.1,1.8,9.3,1.8c1.8,0,3.5-0.1,5.3-0.3
	c1.6-0.2,3.1-0.5,4.6-0.9c1.4-0.4,2.7-0.9,4.1-1.6c1.3-0.6,2.5-1.4,3.6-2.2l0.2-0.1v-18.9h-15.9V109.9z"/>
<path class="st2" d="M297.5,128.3V92.7h5.2c1-0.1,1.9,0.6,2.2,1.6l0.6,2.8c0.7-0.7,1.5-1.4,2.3-2c0.8-0.6,1.6-1.1,2.5-1.6
	c0.9-0.4,1.9-0.8,2.9-1c1.1-0.2,2.2-0.4,3.3-0.3c1.8,0,3.5,0.3,5.2,1c1.5,0.6,2.7,1.6,3.8,2.8c1,1.3,1.8,2.7,2.3,4.3
	c0.5,1.8,0.8,3.6,0.8,5.4v22.6h-8.6v-22.7c0.1-1.8-0.4-3.6-1.5-5c-1.2-1.3-2.8-1.9-4.5-1.8c-1.4,0-2.9,0.3-4.2,1
	c-1.4,0.7-2.6,1.6-3.7,2.7v25.7L297.5,128.3z"/>
<path class="st2" d="M367.9,116.6v-24h-5.2c-0.5,0-1,0.1-1.4,0.4c-0.4,0.3-0.7,0.7-0.8,1.2l-0.5,2c-0.6-0.6-1.2-1.2-1.9-1.7
	c-0.7-0.5-1.4-0.9-2.1-1.3c-0.8-0.4-1.7-0.7-2.5-0.8c-1-0.2-2-0.3-3-0.3c-2.2,0-4.3,0.4-6.3,1.4c-1.9,0.9-3.5,2.3-4.8,3.9
	c-1.4,1.8-2.4,3.8-3.1,5.9c-0.7,2.4-1.1,4.9-1.1,7.3c0,2.6,0.3,5.2,1,7.8c0.5,2.1,1.5,4,2.7,5.7c2.2,3,5.8,4.8,9.5,4.7
	c1.1,0,2.2-0.1,3.3-0.4c1-0.2,2-0.6,2.9-1c0.9-0.4,1.8-1,2.5-1.6c0.8-0.6,1.6-1.3,2.3-2.1c0,1.7-0.3,3.4-0.8,5.1
	c-0.4,1.7-1.3,3.4-2.4,4.8c-1,1.2-2.4,2.2-3.9,2.8c-1.7,0.6-3.4,0.9-5.2,0.9c-1.2,0-2.4-0.1-3.5-0.4c-0.7-0.2-1.4-0.4-2.1-0.4
	c-0.5,0-1,0.1-1.4,0.5c-0.3,0.3-0.5,0.8-0.5,1.2l-0.3,2.5c-0.1,0.9-0.2,1.7-0.2,2.6c2.9,0.8,6,1.2,9,1.2c2.9,0.1,5.8-0.5,8.6-1.6
	c2.4-1,4.6-2.5,6.3-4.5c1.8-2.1,3.1-4.5,3.9-7.1c0.9-3.1,1.4-6.3,1.3-9.5L367.9,116.6L367.9,116.6z M355.8,120.9
	c-1.4,0.8-3,1.2-4.5,1.1c-1,0-2.1-0.2-3-0.6c-0.9-0.4-1.7-1.1-2.3-2c-0.7-1.1-1.2-2.3-1.4-3.5c-0.4-1.7-0.5-3.5-0.5-5.3
	c0-1.8,0.2-3.6,0.6-5.3c0.3-1.3,0.9-2.6,1.7-3.8c0.7-0.9,1.6-1.7,2.7-2.2c1.1-0.5,2.3-0.7,3.5-0.7c1.3,0,2.5,0.2,3.7,0.7
	c1.2,0.6,2.3,1.4,3.2,2.5v15.9C358.3,119,357.1,120,355.8,120.9z"/>
<path class="st2" d="M219,128.3V92.7h5.2c1-0.1,1.9,0.6,2.2,1.6l0.6,2.6c0.6-0.7,1.3-1.3,2-1.9c0.7-0.6,1.4-1.1,2.2-1.5
	c0.8-0.4,1.6-0.8,2.5-1c1-0.3,1.9-0.4,2.9-0.4c2,0,3.9,0.6,5.4,1.9c1.5,1.3,2.6,3,3.2,4.8c0.5-1.1,1.2-2.1,2.1-3
	c0.8-0.8,1.7-1.5,2.7-2.1c1-0.5,2.1-0.9,3.2-1.2c1.1-0.3,2.2-0.4,3.4-0.4c1.8,0,3.6,0.3,5.2,0.9c1.5,0.6,2.8,1.5,3.9,2.6
	c1.1,1.2,1.9,2.7,2.4,4.2c0.6,1.8,0.8,3.8,0.8,5.7v22.6h-8.6v-22.7c0.1-1.8-0.4-3.6-1.5-5.1c-1.1-1.2-2.7-1.8-4.4-1.7
	c-0.8,0-1.7,0.1-2.4,0.4c-1.6,0.6-2.8,1.9-3.3,3.4c-0.3,0.9-0.5,1.9-0.5,2.9v22.6h-8.6v-22.6c0-2.4-0.5-4.1-1.4-5.2
	c-1.1-1.1-2.6-1.7-4.2-1.6c-1.2,0-2.4,0.3-3.4,0.9c-1.1,0.7-2.2,1.5-3,2.5v26L219,128.3z"/>
<path class="st2" d="M209.9,128.3H206c-0.7,0-1.3-0.1-1.9-0.4c-0.5-0.3-0.9-0.9-1-1.5l-0.8-2.5c-0.8,0.8-1.7,1.5-2.6,2.1
	c-0.8,0.6-1.7,1.1-2.7,1.5c-0.9,0.4-1.9,0.7-2.9,0.9c-1.1,0.2-2.3,0.3-3.5,0.3c-1.4,0-2.8-0.2-4.2-0.6c-1.2-0.4-2.3-1-3.3-1.8
	c-0.9-0.8-1.7-1.8-2.1-3c-0.5-1.3-0.8-2.8-0.8-4.2c0-1.4,0.4-2.8,1.1-4c0.9-1.5,2.1-2.7,3.5-3.5c2-1.2,4.2-2.1,6.6-2.6
	c3.3-0.7,6.7-1.1,10.1-1v-2.1c0-2.4-0.5-4.2-1.5-5.3c-1.1-1.2-2.7-1.8-4.4-1.7c-1.2,0-2.3,0.1-3.5,0.5c-0.8,0.3-1.6,0.7-2.4,1.1
	c-0.7,0.4-1.3,0.8-1.9,1.1c-0.6,0.3-1.2,0.5-1.9,0.5c-0.5,0-1.1-0.1-1.5-0.4c-0.4-0.3-0.7-0.7-1-1.1l-1.6-2.7
	c4-3.7,9.3-5.8,14.8-5.7c1.9,0,3.8,0.3,5.6,1c1.6,0.6,3,1.6,4.1,2.8c1.2,1.3,2,2.7,2.6,4.3c0.6,1.8,0.9,3.7,0.9,5.6L209.9,128.3z
	 M193.2,122.9c0.8,0,1.6-0.1,2.4-0.2c0.7-0.2,1.4-0.4,2.1-0.7c0.7-0.3,1.3-0.7,1.9-1.2c0.7-0.5,1.3-1.1,1.9-1.7v-6
	c-2.1,0-4.2,0.1-6.3,0.5c-1.4,0.2-2.7,0.6-4,1.2c-0.9,0.4-1.6,1-2.2,1.7c-0.4,0.6-0.6,1.4-0.6,2.1c-0.1,1.2,0.4,2.4,1.3,3.2
	C190.8,122.6,192,122.9,193.2,122.9z"/>
<path class="st2" d="M380.3,122.6v3h-1.9v-8h2.6c0.5,0,1,0.1,1.5,0.2c0.4,0.1,0.7,0.3,1,0.5c0.3,0.2,0.4,0.5,0.6,0.8
	c0.1,0.3,0.2,0.6,0.2,0.9c0,0.3,0,0.5-0.1,0.7c-0.1,0.2-0.2,0.4-0.3,0.6c-0.1,0.2-0.3,0.4-0.5,0.5c-0.2,0.2-0.4,0.3-0.7,0.4
	c0.1,0.1,0.2,0.1,0.4,0.2c0.1,0.1,0.2,0.2,0.3,0.3l1.7,2.8h-1.7c-0.3,0-0.5-0.1-0.7-0.3l-1.3-2.3c0-0.1-0.1-0.2-0.2-0.2
	c-0.1,0-0.2-0.1-0.3-0.1L380.3,122.6z M380.3,121.3h0.7c0.2,0,0.4,0,0.6-0.1c0.2-0.1,0.3-0.2,0.4-0.3c0.1-0.1,0.2-0.2,0.3-0.4
	c0-0.2,0.1-0.3,0.1-0.5c0-0.3-0.1-0.6-0.3-0.8c-0.3-0.2-0.7-0.3-1.1-0.2h-0.8L380.3,121.3z"/>
<path class="st2" d="M381.2,128.5c-3.8,0-6.8-3-6.8-6.8c0-3.8,3-6.8,6.8-6.8c3.8,0,6.8,3,6.8,6.8c0,0,0,0,0,0
	C388,125.4,384.9,128.5,381.2,128.5z M381.2,115.9c-3.2,0-5.8,2.6-5.8,5.8s2.6,5.8,5.8,5.8s5.8-2.6,5.8-5.8S384.4,115.9,381.2,115.9
	L381.2,115.9z"/>
</svg>
