<?xml version="1.0" encoding="utf-8"?>
<!-- Generator: Adobe Illustrator 26.0.1, SVG Export Plug-In . SVG Version: 6.00 Build 0)  -->
<svg xmlns="http://www.w3.org/2000/svg" xmlns:xlink="http://www.w3.org/1999/xlink" version="1.1" id="PartyCasino_WhitePink" x="0px" y="0px" viewBox="0 0 425 198" style="enable-background:new 0 0 425 198;" xml:space="preserve" width="230" height="230">
<style type="text/css">
	.st0{fill:#DD167F;}
	.st1{fill:#FFFFFF;}
	.st2{clip-path:url(#SVGID_00000046309238277001661320000011481193976882644662_);}
	.st3{clip-path:url(#SVGID_00000183929590148021647660000009944138852856383391_);}
	.st4{clip-path:url(#SVGID_00000151520145860618553490000009255185549611543425_);}
</style>
<path class="st0" d="M108.3,52.4L62.8,6.9c-4-4-10.5-4-14.4,0L3,52.4c-4,4-4,10.5,0,14.4l45.5,45.4c4,4,10.5,4,14.4,0l45.5-45.4  C112.3,62.8,112.3,56.4,108.3,52.4 M31,65.9c-3.5,0-6.3-2.8-6.3-6.3s2.8-6.3,6.3-6.3s6.3,2.8,6.3,6.3S34.4,65.9,31,65.9 M54.5,89.4  c-3.5,0-6.3-2.8-6.3-6.3s2.8-6.3,6.3-6.3s6.3,2.8,6.3,6.3S57.9,89.4,54.5,89.4 M48.1,59.6c0-3.5,2.8-6.3,6.3-6.3s6.3,2.8,6.3,6.3  s-2.8,6.3-6.3,6.3C51,65.9,48.1,63.1,48.1,59.6 M54.5,42.4c-3.5,0-6.3-2.8-6.3-6.3s2.8-6.3,6.3-6.3s6.3,2.8,6.3,6.3  S57.9,42.4,54.5,42.4 M71.6,59.6c0-3.5,2.8-6.3,6.3-6.3s6.3,2.8,6.3,6.3s-2.8,6.3-6.3,6.3C74.5,65.9,71.6,63.1,71.6,59.6 M81.9,83.1  c0,0,10.4-11.3,10.4-23.4S81.9,33.6,81.9,33.6c0.2,0.4,22.9,26.2,22.9,26.2L81.9,83.1z"/>
<path class="st1" d="M157.1,10.1c21.8,0,32.3,12.2,32.3,36S178.2,83,160,83c-4.6,0-9.4-1.4-12.5-3v23.1c0,3.5-2.9,6.4-6.4,6.4h-11.8  c-0.4,0-0.7-0.3-0.7-0.7V15.3c0-0.3,0.2-0.6,0.5-0.6C139.5,11.4,150.3,10.1,157.1,10.1 M170.3,47.2c0-12.6-3.1-22.1-14-22.1  c-3.3,0-6.5,0.7-8.8,1.4v39.1c2.4,1.9,6.8,2.7,10.5,2.7C166.3,68.2,170.3,60.6,170.3,47.2"/>
<path class="st1" d="M195.1,49.6c0-23.9,12.2-39.5,36-39.5c4.6,0,14.8,1.2,25,5v52.2l1.3,13c0,0.4-0.3,0.7-0.6,0.7h-10  c-3.2,0-5.9-2.3-6.3-5.4l-0.2-1.5l-0.5-0.1c-3.7,5.4-9.5,9.2-17.9,9.2C201.1,83.2,195.1,67.2,195.1,49.6 M237.4,59.2V25.1  c-1.9-0.8-5-1.5-8.6-1.5c-11.1,0-14.9,11.5-14.9,24.9c0,10.9,2.4,20.8,12.2,20.8C233.3,69.3,237.4,64.3,237.4,59.2"/>
<path class="st1" d="M265.5,12.1h14.2c0.3,0,0.6,0.2,0.6,0.6l1.2,7.1c0.1,0.6,0.9,0.8,1.2,0.2c3.5-6.7,9.7-9.9,15.4-9.9  c3.8,0,7.8,0.9,10.7,2.4c0.2,0.1,0.3,0.3,0.3,0.6v15.1c0,0.5-0.5,0.8-0.9,0.6c-2.7-1.3-6.1-2.6-11.8-2.6c-6.7,0-11,4.9-11.3,12.1  v42.1c0,0.4-0.3,0.7-0.7,0.7h-17.7c-0.4,0-0.7-0.3-0.7-0.7V24.1c0,0,0,0,0-0.1l-1.3-11.2C264.8,12.5,265.1,12.1,265.5,12.1"/>
<path class="st1" d="M318.1,60.4V0.7c0-0.4,0.3-0.7,0.7-0.7h12c3.5,0,6.4,2.9,6.4,6.4v7.3h14.2c0.6,0,1.1,0.4,1.2,0.9l4.1,12.2  c0.3,0.9-0.4,1.7-1.2,1.7h-18.3v31.4c0,8,3.7,10.3,8.7,10.3c2.9,0,5.5-1,7.6-2.2c0.4-0.2,0.8-0.1,0.9,0.3l4,11  c0.1,0.3,0,0.6-0.3,0.8c-4.2,2.6-11.1,4.5-17.8,4.5C319.8,84.6,318.1,72.8,318.1,60.4"/>
<path class="st1" d="M353.2,105.3l4.1-12.3c0.1-0.4,0.5-0.6,0.9-0.4c3.1,1.5,6.7,3.1,11.2,3.1c5.7,0,8.2-2,11.1-9.2l2.6-6.5l-23-67  c-0.1-0.4,0.2-0.9,0.6-0.9H375c2.9,0,5.4,1.9,6.1,4.7l11.3,40h0.3l11.3-40c0.8-2.8,3.3-4.6,6.1-4.6H425l-24.3,72.3  c-5.8,17.8-13.6,26.5-28.6,26.5c-6.9,0-14.1-2.3-18.5-4.9C353.3,105.9,353.1,105.6,353.2,105.3"/>
<g>
	<path class="st0" d="M136.1,164c0-23.9,12.2-39.5,36-39.5c4.6,0,14.8,1.2,25,5v52.2l1.3,13c0,0.4-0.3,0.7-0.6,0.7h-10   c-3.2,0-5.9-2.3-6.3-5.4l-0.2-1.5l-0.5-0.1c-3.7,5.4-9.5,9.2-17.9,9.2C142.1,197.5,136.1,181.6,136.1,164 M178.4,173.6v-34.1   c-1.9-0.8-5-1.5-8.6-1.5c-11.1,0-14.9,11.6-14.9,24.9c0,10.9,2.4,20.8,12.2,20.8C174.3,183.7,178.4,178.6,178.4,173.6"/>
	<path class="st0" d="M78.3,161.6c0-27.2,17.2-37.2,32.6-37.2c8.8,0,18.1,2.7,24.7,11.9c0.6,0.9,0.5,2.1-0.3,2.8l-8.7,7.3   c-0.9,0.7-2.2,0.6-2.9-0.3c-3.4-4-7.1-6.6-12-6.6c-8.6,0-14.2,7.1-14.2,21.3c0,13.3,4.9,22,15.9,22c4.5,0,8.5-1.4,13.2-4.5   c1-0.7,2.4-0.3,3,0.7l5,9.3c0.5,0.9,0.2,2.1-0.6,2.7c-5.6,3.9-13.5,6.8-23.1,6.8C90.5,198,78.3,185.1,78.3,161.6L78.3,161.6z"/>
	<path class="st0" d="M206.2,189.2l3.9-10.1c0.4-1.1,1.7-1.5,2.7-1c4.9,2.8,12.2,5.7,18.4,5.7c4.6,0,8.5-2.3,8.5-7.2   c0-5.3-4.6-7-10.4-8.8c-10.1-3-21.5-6.4-21.5-20.8s12.2-22.7,26-22.7c9.8,0,18.5,3.5,24.6,8.7c0.8,0.7,0.9,1.8,0.3,2.6l-6.6,8.2   c-0.6,0.8-1.8,0.9-2.6,0.4c-5.1-3.9-10.2-6.1-14.9-6.1s-8.2,2.3-8.2,7c0,5.1,4.6,7,10.9,9c10,3.3,21.2,7,21.2,21.1   s-10.8,22.6-26.7,22.6c-11,0-20.3-3.6-24.9-6.4C206.1,191,205.8,190,206.2,189.2L206.2,189.2z"/>
	<path class="st0" d="M361.7,161c0-28.6,18.2-36.9,32.7-36.9c10.4,0,30.6,3.1,30.6,34.9c0,26.1-14.4,38.6-32.8,38.6   S361.7,185.8,361.7,161L361.7,161z M405.4,161.2c0-14.6-3-23.1-12-23.1c-8.4,0-12.2,8.5-12.2,20.8s1.6,24.7,12,24.7   C401.9,183.6,405.4,175.1,405.4,161.2z"/>
	<g>
		<path class="st0" d="M312.5,134.6L312.5,134.6l-1.3-7.6c0-0.3-0.3-0.6-0.6-0.6H296c-0.4,0-0.7,0.3-0.7,0.7v67.5    c0,0.4,0.3,0.7,0.7,0.7h18.8c0.4,0,0.7-0.3,0.7-0.7v-43.4c0-6.5,4.8-12.1,11.7-12.1c7.3,0,8.5,5.4,8.5,12.9v42.6    c0,0.4,0.3,0.7,0.7,0.7h17.5c0.4,0,0.7-0.3,0.7-0.7v-46.4c0-16.1-8.1-23.7-21.6-23.7C323.9,124.5,317.1,128.3,312.5,134.6"/>
		<g>
			<defs>
				<path id="SVGID_1_" d="M312.5,134.6L312.5,134.6l-1.3-7.6c0-0.3-0.3-0.6-0.6-0.6H296c-0.4,0-0.7,0.3-0.7,0.7v67.5      c0,0.4,0.3,0.7,0.7,0.7h18.8c0.4,0,0.7-0.3,0.7-0.7v-43.4c0-6.5,4.8-12.1,11.7-12.1c7.3,0,8.5,5.4,8.5,12.9v42.6      c0,0.4,0.3,0.7,0.7,0.7h17.5c0.4,0,0.7-0.3,0.7-0.7v-46.4c0-16.1-8.1-23.7-21.6-23.7C323.9,124.5,317.1,128.3,312.5,134.6"/>
			</defs>
			<use xlink:href="#SVGID_1_" style="overflow:visible;fill:#DD167F;"/>
			<clipPath id="SVGID_00000054961169409954527250000006815943026201787301_">
				<use xlink:href="#SVGID_1_" style="overflow:visible;"/>
			</clipPath>
			<g style="clip-path:url(#SVGID_00000054961169409954527250000006815943026201787301_);">
				<rect x="295.4" y="124.4" class="st0" width="59.2" height="70.8"/>
			</g>
		</g>
	</g>
	<g>
		<g>
			<path class="st0" d="M267.8,126.5c-0.4,0-0.7,0.3-0.7,0.7v67.4c0,0.4,0.3,0.7,0.7,0.7h17.9c0.4,0,0.7-0.3,0.7-0.7v-67.4     c0-0.4-0.3-0.7-0.7-0.7C285.7,126.5,267.8,126.5,267.8,126.5z"/>
			<g>
				<defs>
					<path id="SVGID_00000101824694325803771270000010202332182569669299_" d="M267.8,126.5c-0.4,0-0.7,0.3-0.7,0.7v67.4       c0,0.4,0.3,0.7,0.7,0.7h17.9c0.4,0,0.7-0.3,0.7-0.7v-67.4c0-0.4-0.3-0.7-0.7-0.7C285.7,126.5,267.8,126.5,267.8,126.5z"/>
				</defs>
				<use xlink:href="#SVGID_00000101824694325803771270000010202332182569669299_" style="overflow:visible;fill:#DD167F;"/>
				<clipPath id="SVGID_00000116942272848903386140000010039011061855199161_">
					<use xlink:href="#SVGID_00000101824694325803771270000010202332182569669299_" style="overflow:visible;"/>
				</clipPath>
				<g style="clip-path:url(#SVGID_00000116942272848903386140000010039011061855199161_);">
					<rect x="267.1" y="126" class="st0" width="19.3" height="69.2"/>
				</g>
			</g>
		</g>
		<g>
			<path class="st0" d="M267.1,108.2c0,5.3,4.3,9.7,9.7,9.7s9.7-4.3,9.7-9.7s-4.3-9.7-9.7-9.7S267.1,102.8,267.1,108.2"/>
			<g>
				<defs>
					<path id="SVGID_00000044865461623855414110000008593816018075504798_" d="M267.1,108.2c0,5.3,4.3,9.7,9.7,9.7s9.7-4.3,9.7-9.7       s-4.3-9.7-9.7-9.7S267.1,102.8,267.1,108.2"/>
				</defs>
				<use xlink:href="#SVGID_00000044865461623855414110000008593816018075504798_" style="overflow:visible;fill:#DD167F;"/>
				<clipPath id="SVGID_00000023973544701348179610000017552851637353464473_">
					<use xlink:href="#SVGID_00000044865461623855414110000008593816018075504798_" style="overflow:visible;"/>
				</clipPath>
				<g style="clip-path:url(#SVGID_00000023973544701348179610000017552851637353464473_);">
					<rect x="267.1" y="98.5" class="st0" width="19.3" height="19.3"/>
				</g>
			</g>
		</g>
	</g>
</g>
</svg>
