<?xml version="1.0"?>
<svg xmlns="http://www.w3.org/2000/svg" width="230" height="230" viewBox="0 0 180 57" fill="none"><path d="M173.549.646h-1.133V.03h3.006v.615h-1.145v3.39h-.726l-.002-3.39zm5.67 1.756c-.025-.517-.05-1.139-.048-1.685h-.017a21.904 21.904 0 0 1-.473 1.539l-.582 1.733h-.559l-.526-1.71a17.778 17.778 0 0 1-.402-1.562h-.013a96.115 96.115 0 0 1-.071 1.71l-.09 1.61h-.676l.265-4.006h.954l.517 1.608c.143.476.271.951.365 1.396h.018c.106-.438.242-.927.397-1.399l.551-1.604h.942L180 4.038h-.707l-.074-1.636zM97.051 54.618c-3.124.357-6.196.631-9.272.868-.205.016-.413 0-.645 0-.522-2.333-1.032-4.62-1.546-6.906-.52-2.317-1.07-4.623-1.557-6.944-.481-2.29-.902-4.592-1.431-6.893-.03.135-.069.27-.085.406-.138 1.153-.282 2.305-.405 3.46-.214 2.02-.535 4.026-.869 6.03-.354 2.106-.695 4.218-1.047 6.322-.273 1.637-.551 3.272-.833 4.939-.154.037-.31.065-.468.084-3.006.174-6.02.178-9.03.186a2.153 2.153 0 0 1-.295-.044c-.118-.223-.256-.47-.377-.727a212.782 212.782 0 0 0-5.979-11.672 183.316 183.316 0 0 0-5.103-8.636c-.151-.238-.358-.458-.409-.815 3.487-1.26 6.981-2.509 10.445-3.748.307.19.313.483.395.72 1.726 4.98 3.423 9.969 4.922 15.024.24.809.488 1.614.736 2.42.035.115.09.223.173.425.182-.26.14-.475.166-.663.032-.238.059-.471.085-.708.023-.21.043-.42.065-.63.025-.237.048-.475.075-.708.023-.21.053-.419.076-.629.023-.21.037-.42.059-.63.028-.238.066-.47.094-.706.025-.21.04-.42.065-.63.028-.238.065-.47.094-.706.026-.21.043-.42.069-.63.026-.21.059-.416.086-.627.031-.237.056-.471.085-.707.026-.21.054-.416.082-.628.03-.238.066-.47.095-.705.027-.21.044-.42.072-.63.028-.209.064-.415.09-.626.03-.238.046-.476.077-.709.028-.209.072-.416.099-.625.027-.209.036-.421.063-.63.03-.238.076-.47.105-.704.027-.21.036-.422.06-.631.029-.238.074-.47.104-.705.027-.209.04-.42.066-.63.027-.209.066-.415.093-.626.031-.237.053-.472.082-.707.026-.21.06-.416.085-.627.03-.238.055-.472.084-.708.026-.21.053-.416.081-.628.028-.211.06-.415.083-.627.03-.238.054-.476.084-.708.028-.209.064-.416.09-.627.029-.237.044-.475.077-.708.03-.207.075-.411.122-.664 1.846-.726 3.728-1.363 5.599-2.033 1.871-.67 3.728-1.367 5.663-1.995.307 1.118.449 2.213.665 3.292.212 1.06.394 2.126.589 3.19.199 1.089.394 2.18.593 3.268.194 1.064.398 2.126.59 3.19.195 1.09.387 2.18.566 3.274.177 1.07.335 2.139.494 3.209.162 1.089.272 2.188.554 3.268.309-1.027.376-2.087.555-3.126.183-1.066.331-2.14.5-3.206.168-1.066.34-2.135.518-3.202.178-1.066.37-2.13.55-3.196.18-1.066.349-2.133.53-3.2.183-1.065.373-2.13.553-3.196.18-1.066.353-2.133.53-3.2.177-1.066.359-2.13.545-3.235.146-.076.295-.179.463-.238 3.021-1.04 6.042-2.076 9.063-3.11a2.96 2.96 0 0 1 .372-.077c.163.22.053.42.004.618-.759 3.07-1.501 6.146-2.286 9.21a3859.14 3859.14 0 0 1-4.715 18.221c-.766 2.932-1.579 5.852-2.373 8.777-.065.252-.153.497-.255.825zM30.56 4.733c-1.108 2.82-2.193 5.585-3.289 8.37-.186-.016-.338-.02-.488-.04-1.453-.199-2.908-.38-4.38-.338-2.1.06-4.173.32-6.193.93a9.387 9.387 0 0 0-2.292 1.018c-.516.323-.977.709-1.332 1.213a2.517 2.517 0 0 0-.477 1.398c-.023.687.267 1.184.862 1.471.4.193.822.338 1.255.431.641.133 1.29.229 1.94.289.964.091 1.933.14 2.899.207 1.751.119 3.494.303 5.191.786.961.273 1.886.633 2.737 1.17 1.58.998 2.499 2.421 2.779 4.29.252 1.684.03 3.316-.422 4.928-.664 2.374-1.87 4.462-3.398 6.37-2.049 2.555-4.527 4.605-7.33 6.263a31.9 31.9 0 0 1-9.226 3.691c-2.38.537-4.826.713-7.257.523-.7-.054-1.402-.145-2.06-.385-.155-.283-.046-.54.009-.788.407-1.827.82-3.652 1.238-5.475.24-1.053.495-2.103.747-3.154.03-.124.078-.244.134-.416.295.048.576.084.85.137 3.739.72 7.399.416 10.98-.864a9.892 9.892 0 0 0 2.306-1.177c.59-.406 1.116-.874 1.521-1.472.378-.556.6-1.165.62-1.846.017-.61-.22-1.086-.739-1.388a3.517 3.517 0 0 0-.934-.399c-.61-.142-1.23-.27-1.853-.319a55.817 55.817 0 0 0-3.216-.146c-1.657-.036-3.29-.225-4.888-.669a10.566 10.566 0 0 1-2.6-1.093C2.263 27.06 1.067 25.315.666 23.025c-.446-2.55-.043-4.991 1.031-7.324.976-2.12 2.41-3.885 4.156-5.402 2.436-2.116 5.239-3.565 8.281-4.56 2.299-.752 4.661-1.188 7.06-1.458 1.952-.22 3.92-.266 5.88-.136 1.064.068 2.583.31 3.486.588zm109.432 42.21a353.666 353.666 0 0 1-10.845 2.45c-.084-.192-.176-.347-.221-.516-.69-2.599-1.378-5.198-2.063-7.799-.04-.15-.103-.297-.169-.478-.186.014-.367.005-.538.044-2.96.675-5.919 1.355-8.877 2.039a5.528 5.528 0 0 0-.537.184l-2.391 9.295c-1.087.29-2.18.386-3.257.577-1.077.19-2.171.345-3.259.502-1.088.158-2.166.297-3.236.445-.147-.263-.023-.453.037-.645.648-2.09 1.309-4.174 1.94-6.27 1.267-4.214 2.552-8.424 3.768-12.656 1.856-6.459 3.661-12.933 5.488-19.4.078-.277.16-.554.236-.808.815-.404 11.512-3.734 12.913-4.025.188.167.215.407.277.633.866 3.07 1.718 6.143 2.603 9.207 1.325 4.583 2.653 9.166 4.019 13.736 1.246 4.166 2.547 8.319 3.822 12.473.093.302.174.605.29 1.013zm-14.592-14.172c-1.101-4.352-2.191-8.663-3.286-12.973-.007-.03-.074-.045-.165-.095-.046.147-.1.286-.133.428-.384 1.696-.744 3.397-1.151 5.087-.715 2.971-1.458 5.934-2.189 8.9-.036.147-.131.297.016.437.601-.04 6.123-1.453 6.908-1.784zM38.564 2.756c.202-.072.368-.147.54-.19a58.925 58.925 0 0 1 5.857-1.129c1.424-.201 2.848-.42 4.279-.567 3.205-.326 6.415-.603 9.64-.356 2.016.153 4.001.48 5.894 1.248.955.388 1.84.891 2.602 1.597 1.025.947 1.65 2.106 1.761 3.517.069.854-.1 1.681-.35 2.492-.444 1.437-1.222 2.677-2.195 3.803-1.057 1.227-2.318 2.211-3.645 3.115-2.97 2.024-6.202 3.506-9.59 4.656-1.96.665-3.937 1.267-5.981 1.62-.1.017-.192.075-.336.134-.51 3.855-.912 7.736-1.424 11.642-1.179.51-2.407.878-3.606 1.317-1.179.433-2.367.847-3.556 1.253-1.207.41-2.4.87-3.662 1.248-.018-.173-.048-.276-.037-.375a82268.33 82268.33 0 0 1 3.81-35.025zm9.348 12.682c.244 0 .374.017.497 0 .721-.12 1.445-.23 2.161-.377 1.701-.347 3.332-.898 4.833-1.79.84-.498 1.6-1.095 2.196-1.885.396-.527.67-1.136.8-1.783.208-.977-.172-2.017-1.296-2.508a5.253 5.253 0 0 0-1.745-.42c-2.114-.152-4.167.238-6.211.704-.097.023-.184.094-.314.163-.297 2.598-.65 5.2-.921 7.896zm110.013 26.871a365.86 365.86 0 0 1-9.96 2.657c-.019-.297-.045-.523-.047-.75-.064-4.596-.125-9.19-.187-13.78-.007-.555-.043-1.11-.03-1.664.01-.445-.139-.814-.36-1.189-1.21-2.037-2.433-4.067-3.6-6.13-2.438-4.309-4.842-8.636-7.258-12.958-.113-.203-.204-.42-.306-.63.746-.35 5.763-1.71 10.02-2.718.172-.041.354-.046.581-.075.628 1.611 1.242 3.204 1.87 4.791a476.277 476.277 0 0 0 1.92 4.77c.647 1.584 1.311 3.157 2.003 4.826.107-.179.19-.27.221-.377 1.108-3.85 2.211-7.7 3.309-11.55.433-1.522.839-3.05 1.259-4.576.026-.1.063-.197.107-.332 1.05-.313 2.138-.46 3.209-.685a69.748 69.748 0 0 1 3.241-.613c1.087-.174 2.141-.448 3.308-.522-.117.343-.19.617-.295.88-1.8 4.443-3.587 8.893-5.415 13.325-1.326 3.214-2.705 6.407-4.074 9.604a2.54 2.54 0 0 0-.222 1.147c.083 1.687.156 3.375.232 5.062l.223 4.985c.085 1.951.169 3.903.252 5.854.009.183-.001.366-.001.648zm-123.258-.067c4.366-1.462 8.693-2.935 13.02-4.437 4.177 3.721 7.899 7.788 11.31 12.146 2.64 3.373 4.04 5.357 4.327 6.077-.062.119-.18.085-.274.082-1.909-.07-3.817-.144-5.726-.22-.731-.03-1.463-.103-2.194-.108-.516 0-.87-.198-1.206-.594-.869-1.022-1.783-2.003-2.682-2.998-.105-.119-.225-.22-.373-.362l-8.487.17a4.89 4.89 0 0 0-.09.54c-.035.633-.06 1.264-.083 1.864-.207.217-.426.134-.622.11a284.914 284.914 0 0 1-3.812-.501c-.985-.136-1.968-.286-2.95-.435-.23-.035-.456-.093-.73-.15-.015-1.902.136-3.763.226-5.627.091-1.84.228-3.68.346-5.557zm13.627 6.403c-.227-.25-.322-.37-.432-.475-.595-.553-1.18-1.12-1.793-1.65a229.772 229.772 0 0 0-3.3-2.786c-.146-.119-.28-.334-.553-.22-.071 1.804-.142 3.61-.211 5.42.006.1.022.202.047.3.103.02.177.055.249.047 1.94-.203 3.886-.411 5.993-.636zm43.327-30.53c-.08-.783.227-16.7.33-17.41.157-.017.33-.06.5-.05 1.019.067 2.037.137 3.054.226 1.486.13 2.971.27 4.455.42 1.146.114 2.291.238 3.435.371.335.04.661.103.968.29 2.995 1.827 6.22 3.13 9.53 4.234.968.324 1.949.607 2.927.9.187.055.387.065.657.108-1.584-1.596-1.927-2.513-2.503-3.789.184-.145.393-.073.583-.043 1.034.166 2.066.34 3.096.522 1.34.238 2.678.484 4.015.737.309.052.611.14.9.26 1.361.614 2.717 1.242 4.072 1.869.113.063.221.133.325.209-.226.085-.386.16-.554.207-3.202.893-6.404 1.784-9.607 2.674a4.614 4.614 0 0 0-.451.136c-.678.265-1.372.27-2.083.173-2.888-.392-5.707-1.07-8.425-2.144-1.933-.765-3.761-1.728-5.45-2.95-.139-.101-.254-.279-.512-.21.047.807.273 1.592.359 2.397.091.84.203 1.677.284 2.517.079.814.132 1.63.193 2.446.061.816.118 1.626.182 2.47-1.148.47-2.309.773-3.44 1.167-1.112.385-2.236.74-3.354 1.11-1.136.373-2.274.75-3.486 1.153zM85.204.264l-1.247 20.43c-.714.362-1.478.546-2.207.815-.761.282-1.532.541-2.298.81l-2.224.779c-.766.269-1.526.555-2.299.807-.736.24-1.444.58-2.208.73-.03-.097-.062-.146-.058-.194.007-.185.02-.369.039-.553.786-7.925 1.572-15.864 2.358-23.815.87-.125 1.703-.052 2.534-.052.838 0 1.676.015 2.514.037.838.021 1.674.045 2.511.089.837.044 1.672-.011 2.585.117z" fill="#60DDCB"/></svg>
